<svg width="16" height="16" viewBox="0 0 16 16" fill="none" xmlns="http://www.w3.org/2000/svg">
<rect width="16" height="16" rx="8" fill="#C0DBEA"/>
<path d="M11.1955 9.06667C11.3232 8.72558 11.3879 8.36418 11.3866 8C11.3866 7.19138 11.0654 6.41589 10.4936 5.84411C9.92187 5.27233 9.14637 4.95111 8.33776 4.95111C7.97806 4.95153 7.62134 5.01625 7.28442 5.14222L7.99998 5.88C8.10875 5.8626 8.21871 5.85368 8.32887 5.85333C8.90062 5.85214 9.44961 6.07722 9.85598 6.47942C10.2623 6.88162 10.4931 7.42827 10.4978 8C10.4974 8.11015 10.4885 8.22011 10.4711 8.32889L11.1955 9.06667Z" fill="#D885A3"/>
<path d="M15.2399 7.79111C13.7421 5.02222 11.1154 3.34667 8.20877 3.34667C7.41737 3.34853 6.63129 3.47604 5.87988 3.72445L6.59544 4.44445C7.12248 4.30824 7.66442 4.23807 8.20877 4.23556C10.711 4.23556 12.9866 5.63111 14.3421 7.98222C13.8448 8.85449 13.1856 9.62382 12.3999 10.2489L13.031 10.88C13.9404 10.1464 14.6956 9.24009 15.2532 8.21334L15.3688 8L15.2399 7.79111Z" fill="#D885A3"/>
<path d="M2.16453 2.56889L4.14675 4.55111C2.89382 5.35783 1.86982 6.47367 1.17342 7.79111L1.05786 8L1.17342 8.21333C2.67119 10.9822 5.29786 12.6578 8.20453 12.6578C9.33904 12.6575 10.4588 12.4008 11.4801 11.9067L13.7023 14.1289L14.4801 13.4622L2.92453 1.90667L2.16453 2.56889ZM6.49786 6.90222L9.45341 9.85778C9.11947 10.0645 8.73504 10.1752 8.3423 10.1778C8.05694 10.1778 7.77439 10.1214 7.51092 10.0118C7.24744 9.90215 7.00824 9.74152 6.80708 9.53912C6.60592 9.33672 6.44676 9.09653 6.33878 8.83239C6.23079 8.56825 6.1761 8.28536 6.17786 8C6.18287 7.6118 6.29349 7.2323 6.49786 6.90222ZM5.85342 6.25778C5.43761 6.84418 5.24272 7.5588 5.30324 8.2751C5.36377 8.99141 5.67582 9.6632 6.18413 10.1715C6.69244 10.6798 7.36422 10.9919 8.08053 11.0524C8.79684 11.1129 9.51146 10.918 10.0979 10.5022L10.809 11.2133C9.98576 11.5652 9.09979 11.7466 8.20453 11.7467C5.7023 11.7467 3.42675 10.3511 2.07119 8C2.72173 6.8481 3.65863 5.88364 4.79119 5.2L5.85342 6.25778Z" fill="#D885A3"/>
</svg>
